<?xml version="1.0" encoding="utf-8"?>
<!-- Generator: Adobe Illustrator 28.0.0, SVG Export Plug-In . SVG Version: 6.00 Build 0)  -->
<svg version="1.1" id="Ebene_1" xmlns="http://www.w3.org/2000/svg" xmlns:xlink="http://www.w3.org/1999/xlink" x="0px" y="0px"
	 viewBox="0 0 283.5 283.5" style="enable-background:new 0 0 283.5 283.5;" xml:space="preserve">
<style type="text/css">
	.st0{display:none;fill:#FF0000;}
	.st1{display:none;}
	.st2{display:inline;fill:#FFFFFF;}
	.st3{font-family:'Mono45Headline-Bold';}
	.st4{font-size:146.5858px;}
</style>
<g>
	<rect width="284" height="284"/>
</g>
<circle class="st0" cx="142" cy="142" r="142"/>
<circle class="st0" cx="141.7" cy="141.7" r="113.6"/>
<text transform="matrix(1 0 0 1 45.5122 135.269)" class="st1"><tspan x="0" y="0" class="st2 st3 st4">foo</tspan><tspan x="0" y="112.9" class="st2 st3 st4">rum</tspan></text>
<g class="st1">
	<path class="st2" d="M52,34.7h54.3c0.5,0,1,0.4,1,1v18.5c0,0.5-0.4,1-1,1H73.6c-0.5,0-1,0.4-1,1v17.4c0,0.5,0.4,1,1,1h29.2
		c0.5,0,1,0.4,1,1v18.5c0,0.5-0.4,1-1,1H73.6c-0.5,0-1,0.4-1,1v38.5c0,0.5-0.4,1-1,1H52c-0.5,0-1-0.4-1-1V35.7
		C51,35.1,51.5,34.7,52,34.7z"/>
	<path class="st2" d="M170.7,62.5v45.1c0,17.4-10.4,29.8-28.7,29.8c-18.3,0-28.7-12.3-28.7-29.8V62.5c0-17.4,10.4-29.8,28.7-29.8
		C160.2,32.8,170.7,45.1,170.7,62.5z M150.1,65c0-4.3-0.4-12-8.2-12c-7.8,0-8.2,7.8-8.2,12v40.2c0,4.3,0.4,12,8.2,12
		c7.8,0,8.2-7.8,8.2-12V65z"/>
	<path class="st2" d="M235.1,62.5v45.1c0,17.4-10.4,29.8-28.7,29.8s-28.7-12.3-28.7-29.8V62.5c0-17.4,10.4-29.8,28.7-29.8
		S235.1,45.1,235.1,62.5z M214.6,65c0-4.3-0.4-12-8.2-12s-8.2,7.8-8.2,12v40.2c0,4.3,0.4,12,8.2,12s8.2-7.8,8.2-12V65z"/>
	<path class="st2" d="M48.1,247.4v-98.9c0-0.5,0.4-1,1-1h27.5c21.3,0,29.3,16.7,29.3,31.2c0,14.1-5.4,21.8-12,26.4
		c-0.4,0.3-0.5,0.7-0.4,1.1l14.5,40.8c0.2,0.6-0.2,1.3-0.9,1.3h-20c-0.4,0-0.8-0.3-0.9-0.7l-12.9-37.1c-0.1-0.4-0.5-0.7-0.9-0.7
		h-2.7c-0.5,0-1,0.4-1,1v36.4c0,0.5-0.4,1-1,1H49.1C48.5,248.4,48.1,248,48.1,247.4z M68.6,188.8c0,0.5,0.4,1,1,1h4.9
		c9.8,0,10.8-6.3,10.8-11c0-4.7-1-11-10.8-11h-4.9c-0.5,0-1,0.4-1,1V188.8z"/>
	<path class="st2" d="M133.3,147.5c0.5,0,1,0.4,1,1v70.8c0,4.3,0.7,10.4,7.6,10.4c6.9,0,7.6-6.2,7.6-10.4v-70.8c0-0.5,0.4-1,1-1
		h18.8c0.5,0,1,0.4,1,1v72c0,18.8-10.1,29.8-28.4,29.8c-18.3,0-28.4-11-28.4-29.8v-72c0-0.5,0.4-1,1-1H133.3z"/>
	<path class="st2" d="M178.7,147.5h18.8c0.5,0,0.8,0.3,1,0.7l7.1,27.6c0.3,1,1.7,1,1.9,0l7.1-27.6c0.1-0.4,0.5-0.7,1-0.7H234
		c0.5,0,1,0.4,1,1v98.9c0,0.5-0.4,1-1,1h-18.4c-0.5,0-1-0.4-1-1v-44.3c0-1.2-1.6-1.4-1.9-0.3l-5.3,19.6c-0.3,1-1.6,1-1.9,0
		l-5.3-19.6c-0.3-1.1-1.9-0.9-1.9,0.3v44.3c0,0.5-0.4,1-1,1h-18.5c-0.5,0-1-0.4-1-1v-98.9C177.7,148,178.1,147.5,178.7,147.5z"/>
</g>
</svg>
