<?xml version="1.0" encoding="utf-8"?>
<!-- Generator: Adobe Illustrator 28.0.0, SVG Export Plug-In . SVG Version: 6.00 Build 0)  -->
<svg version="1.1" id="Ebene_1" xmlns="http://www.w3.org/2000/svg" xmlns:xlink="http://www.w3.org/1999/xlink" x="0px" y="0px"
	 viewBox="0 0 150 150" style="enable-background:new 0 0 150 150;" xml:space="preserve">
<style type="text/css">
	.st0{display:none;fill:#FF0000;}
	.st1{display:none;}
	.st2{display:inline;fill:#FFFFFF;}
</style>
<g>
	<rect x="0" y="0" width="150" height="150"/>
</g>
<circle class="st0" cx="74.9" cy="74.3" r="60"/>
<g class="st1">
	<path class="st2" d="M27.6,17.9h28.7c0.3,0,0.5,0.2,0.5,0.5v9.8c0,0.3-0.2,0.5-0.5,0.5H39c-0.3,0-0.5,0.2-0.5,0.5v9.2
		c0,0.3,0.2,0.5,0.5,0.5h15.4c0.3,0,0.5,0.2,0.5,0.5v9.8c0,0.3-0.2,0.5-0.5,0.5H39c-0.3,0-0.5,0.2-0.5,0.5v20.3
		c0,0.3-0.2,0.5-0.5,0.5H27.6c-0.3,0-0.5-0.2-0.5-0.5V18.4C27.1,18.1,27.4,17.9,27.6,17.9z"/>
	<path class="st2" d="M90.3,32.6v23.8c0,9.2-5.5,15.7-15.2,15.7c-9.7,0-15.2-6.5-15.2-15.7V32.6c0-9.2,5.5-15.7,15.2-15.7
		C84.8,16.9,90.3,23.4,90.3,32.6z M79.4,33.9c0-2.2-0.2-6.3-4.3-6.3c-4.1,0-4.3,4.1-4.3,6.3v21.2c0,2.2,0.2,6.3,4.3,6.3
		c4.1,0,4.3-4.1,4.3-6.3V33.9z"/>
	<path class="st2" d="M124.3,32.6v23.8c0,9.2-5.5,15.7-15.2,15.7S94,65.6,94,56.4V32.6c0-9.2,5.5-15.7,15.2-15.7
		S124.3,23.4,124.3,32.6z M113.5,33.9c0-2.2-0.2-6.3-4.3-6.3c-4.1,0-4.3,4.1-4.3,6.3v21.2c0,2.2,0.2,6.3,4.3,6.3
		c4.1,0,4.3-4.1,4.3-6.3V33.9z"/>
	<path class="st2" d="M25.6,130.2V78c0-0.3,0.2-0.5,0.5-0.5h14.5c11.2,0,15.5,8.8,15.5,16.5c0,7.4-2.8,11.5-6.3,13.9
		c-0.2,0.1-0.3,0.4-0.2,0.6l7.7,21.5c0.1,0.3-0.1,0.7-0.5,0.7H46.1c-0.2,0-0.4-0.1-0.5-0.4l-6.8-19.6c-0.1-0.2-0.3-0.4-0.5-0.4h-1.4
		c-0.3,0-0.5,0.2-0.5,0.5v19.2c0,0.3-0.2,0.5-0.5,0.5h-9.8C25.8,130.7,25.6,130.4,25.6,130.2z M36.4,99.2c0,0.3,0.2,0.5,0.5,0.5h2.6
		c5.2,0,5.7-3.3,5.7-5.8c0-2.5-0.5-5.8-5.7-5.8h-2.6c-0.3,0-0.5,0.2-0.5,0.5V99.2z"/>
	<path class="st2" d="M70.5,77.4c0.3,0,0.5,0.2,0.5,0.5v37.4c0,2.2,0.4,5.5,4,5.5c3.6,0,4-3.2,4-5.5V78c0-0.3,0.2-0.5,0.5-0.5h9.9
		c0.3,0,0.5,0.2,0.5,0.5v38c0,9.9-5.3,15.7-15,15.7c-9.7,0-15-5.8-15-15.7V78c0-0.3,0.2-0.5,0.5-0.5H70.5z"/>
	<path class="st2" d="M94.5,77.4h9.9c0.2,0,0.4,0.2,0.5,0.4l3.7,14.6c0.1,0.5,0.9,0.5,1,0l3.7-14.6c0.1-0.2,0.3-0.4,0.5-0.4h9.8
		c0.3,0,0.5,0.2,0.5,0.5v52.2c0,0.3-0.2,0.5-0.5,0.5H114c-0.3,0-0.5-0.2-0.5-0.5v-23.4c0-0.6-0.9-0.7-1-0.1l-2.8,10.4
		c-0.1,0.5-0.9,0.5-1,0l-2.8-10.4c-0.2-0.6-1-0.5-1,0.1v23.4c0,0.3-0.2,0.5-0.5,0.5h-9.8c-0.3,0-0.5-0.2-0.5-0.5V78
		C94,77.7,94.2,77.4,94.5,77.4z"/>
</g>
</svg>
